<svg width="600" height="600" xmlns="http://www.w3.org/2000/svg" xmlns:xlink="http://www.w3.org/1999/xlink"><title>Layer 1</title><use xlink:href="#a" height="600" width="600" y="135.208" x="607.268"/><use xlink:href="#b" height="600" width="600" y="136.288" x="571.039"/><use xlink:href="#c" height="600" width="600" y="137.521" x="538.818"/><path fill="#673bb7" d="M548.849 27.68c2.251 2.26-.275 6.29-2.532 6.518-2.256.227-4.297-3.932-2.984-4.296 1.363-.378 1.17-3.371 3.037-3.982 1.852-.606.167-.559 2.479 1.76z"/><use xlink:href="#a" height="600" width="600" y="124.879" x="634.247"/><use xlink:href="#b" height="600" width="600" y="127.654" x="596.322"/><use xlink:href="#c" height="600" width="600" y="124.571" x="520.473"/><path fill="#673bb7" d="M534.82 16.118c2.251 2.259-.275 6.29-2.532 6.517-2.256.228-4.297-3.932-2.985-4.296 1.364-.378 1.17-3.37 3.038-3.981 1.852-.606.167-.56 2.479 1.76z"/><use xlink:href="#a" height="600" width="600" y="604.45" x="194.561"/><use xlink:href="#b" height="600" width="600" y="605.067" x="157.099"/><use xlink:href="#c" height="600" width="600" y="602.909" x="127.653"/><path fill="#673bb7" d="M136.142 496.922c2.251 2.26-.275 6.29-2.532 6.518-2.256.227-4.297-3.932-2.985-4.296 1.364-.378 1.17-3.371 3.038-3.982 1.852-.606.167-.559 2.479 1.76z"/><use xlink:href="#a" height="600" width="600" y="596.742" x="222.156"/><use xlink:href="#b" height="600" width="600" y="595.355" x="184.232"/><use xlink:href="#c" height="600" width="600" y="594.083" x="109.577"/><path fill="#673bb7" d="M117.95 487.827c2.252 2.258-.275 6.289-2.531 6.517-2.257.228-4.298-3.932-2.985-4.296 1.363-.378 1.17-3.371 3.038-3.982 1.852-.605.167-.559 2.478 1.76z"/><use xlink:href="#a" height="600" width="600" transform="rotate(50.538 -201.358 264.052)"/><use xlink:href="#b" height="600" width="600" transform="rotate(50.538 -194.621 240.225)"/><use xlink:href="#c" height="600" width="600" transform="rotate(50.538 -175.586 201.412)"/><path fill="#673bb7" d="M178.958 149.171c-.313 3.174-5.03 3.785-6.64 2.188-1.61-1.598.304-5.817 1.419-5.035 1.158.812 3.346-1.239 5.005-.185 1.644 1.045.537-.227.216 3.032z"/><use xlink:href="#a" height="600" width="600" transform="rotate(-46.966 452.135 -326.116)"/><use xlink:href="#b" height="600" width="600" transform="rotate(-27.875 809.752 -549.933)"/><use xlink:href="#c" height="600" width="600" transform="rotate(88.21 -51.73 181.717)"/><path fill="#673bb7" d="M256.598 236.911c-.313 3.174-5.03 3.785-6.64 2.188-1.61-1.597.304-5.817 1.42-5.035 1.157.812 3.345-1.239 5.004-.185 1.644 1.045.537-.226.216 3.032z"/><use xlink:href="#b" height="600" width="600" transform="rotate(50.538 -214.907 280.178)"/><use xlink:href="#c" height="600" width="600" transform="rotate(50.538 -197.362 245.361)"/><path fill="#673bb7" d="M203.907 181.078c-.313 3.174-5.03 3.785-6.64 2.188-1.61-1.598.304-5.817 1.42-5.035 1.158.812 3.346-1.24 5.004-.185 1.645 1.044.538-.227.216 3.032z"/><use xlink:href="#b" height="600" width="600" transform="rotate(50.538 -256.168 374.865)"/><use xlink:href="#c" height="600" width="600" transform="rotate(162.213 77.753 59.395)"/><path fill="#673bb7" d="M219.97 196.834c-.314 3.174-5.031 3.785-6.641 2.187-1.61-1.597.304-5.817 1.42-5.035 1.158.813 3.346-1.238 5.004-.185 1.645 1.045.538-.226.216 3.033z"/><use xlink:href="#a" height="600" width="600" transform="rotate(40.27 -432.494 635.177)"/><use xlink:href="#b" height="600" width="600" transform="rotate(40.27 -417.914 587.296)"/><use xlink:href="#c" height="600" width="600" transform="rotate(40.27 -399.636 550.464)"/><path fill="#673bb7" d="M332.986 315.476c.258 3.179-4.275 4.621-6.144 3.336-1.87-1.285-.738-5.778.5-5.207 1.284.593 3.071-1.815 4.89-1.074 1.805.735.49-.319.754 2.945z"/><use xlink:href="#a" height="600" width="600" transform="rotate(40.27 -517.684 858.423)"/><use xlink:href="#b" height="600" width="600" transform="rotate(40.27 -496.83 807.398)"/><use xlink:href="#c" height="600" width="600" transform="rotate(40.27 -459.261 703.847)"/><path fill="#673bb7" d="M421.696 388.537c.258 3.179-4.275 4.621-6.144 3.336-1.869-1.284-.737-5.778.5-5.207 1.284.593 3.071-1.815 4.891-1.074 1.805.735.489-.319.753 2.945z"/><use xlink:href="#a" height="600" width="600" transform="rotate(40.27 -456.546 699.756)"/><use xlink:href="#b" height="600" width="600" transform="rotate(40.27 -439.755 653.466)"/><use xlink:href="#c" height="600" width="600" transform="rotate(40.27 -419.284 609.333)"/><path fill="#673bb7" d="M366.87 343.324c.258 3.179-4.275 4.621-6.144 3.336-1.869-1.285-.737-5.778.5-5.207 1.284.593 3.072-1.815 4.891-1.074 1.805.735.489-.319.754 2.945z"/><use xlink:href="#a" height="600" width="600" transform="rotate(40.27 -495.56 796.064)"/><use xlink:href="#b" height="600" width="600" transform="rotate(40.27 -477.543 748.185)"/><use xlink:href="#c" height="600" width="600" transform="rotate(40.27 -432.767 645.032)"/><path fill="#673bb7" d="M386.737 359.34c.258 3.18-4.275 4.622-6.144 3.337-1.87-1.285-.738-5.778.5-5.207 1.284.592 3.071-1.816 4.89-1.075 1.805.735.49-.318.754 2.946z"/><use xlink:href="#a" height="600" width="600" transform="rotate(-43.279 591.83 -415.467)"/><use xlink:href="#b" height="600" width="600" transform="rotate(-43.279 613.723 -366.24)"/><use xlink:href="#c" height="600" width="600" transform="rotate(-43.279 620.89 -332.693)"/><path fill="#673bb7" d="M331.393 251.417c3.188.101 4.112 4.768 2.625 6.48-1.487 1.713-5.824.084-5.118-1.08.733-1.21-1.46-3.257-.518-4.982.933-1.71-.262-.521 3.011-.418z"/><use xlink:href="#a" height="600" width="600" transform="rotate(-43.279 497.884 -648.959)"/><use xlink:href="#b" height="600" width="600" transform="rotate(-30.145 667.352 -916.08)"/><use xlink:href="#c" height="600" width="600" transform="rotate(-105.116 310.73 -114.484)"/><path fill="#673bb7" d="M415.952 174.991c1.84 2.605-1.328 6.154-3.59 6-2.263-.155-3.576-4.599-2.22-4.737 1.407-.144 1.72-3.126 3.663-3.415 1.928-.285.258-.522 2.147 2.152z"/><use xlink:href="#a" height="600" width="600" transform="rotate(42.311 -344.045 631.911)"/><use xlink:href="#b" height="600" width="600" transform="rotate(-43.279 585.723 -430.163)"/><use xlink:href="#c" height="600" width="600" transform="rotate(-43.279 595.74 -390.764)"/><path fill="#673bb7" d="M374.693 213.294c3.188.1 4.112 4.767 2.625 6.48s-5.824.083-5.118-1.081c.733-1.21-1.459-3.257-.518-4.982.933-1.71-.262-.52 3.011-.417z"/><use xlink:href="#a" height="600" width="600" transform="rotate(44.378 -226.877 643.504)"/><use xlink:href="#b" height="600" width="600" transform="rotate(-111.952 273.8 -106.408)"/><use xlink:href="#c" height="600" width="600" transform="rotate(-110.991 291.215 -69.596)"/><path fill="#673bb7" d="M380.346 206.542c1.937 2.534-1.094 6.2-3.361 6.131-2.267-.069-3.747-4.46-2.398-4.65 1.4-.196 1.6-3.188 3.532-3.55 1.915-.358.238-.532 2.227 2.07z"/><use xlink:href="#a" height="600" width="600" transform="rotate(35.184 -633.917 1001.795)"/><use xlink:href="#b" height="600" width="600" transform="rotate(35.184 -616.548 941.172)"/><use xlink:href="#c" height="600" width="600" transform="rotate(35.184 -597.546 895.009)"/><path fill="#673bb7" d="M475.636 426.74c.539 3.143-3.848 4.982-5.824 3.868-1.975-1.114-1.247-5.69.036-5.231 1.332.476 2.899-2.08 4.777-1.504 1.862.572.458-.36 1.011 2.867z"/><use xlink:href="#a" height="600" width="600" transform="rotate(35.184 -720.978 1262.836)"/><use xlink:href="#b" height="600" width="600" transform="rotate(35.184 -706.812 1081.452)"/><use xlink:href="#c" height="600" width="600" transform="rotate(35.184 -657.753 1081.192)"/><path fill="#673bb7" d="M566.326 496.86c.539 3.143-3.849 4.981-5.824 3.867-1.976-1.114-1.247-5.69.036-5.23 1.332.476 2.899-2.081 4.777-1.504 1.862.572.458-.36 1.011 2.866z"/><use xlink:href="#a" height="600" width="600" transform="rotate(35.184 -656.492 1080.152)"/><use xlink:href="#b" height="600" width="600" transform="rotate(35.184 -640.08 1022.48)"/><use xlink:href="#c" height="600" width="600" transform="rotate(35.184 -620.606 975.41)"/><path fill="#673bb7" d="M516.661 454.062c.54 3.144-3.848 4.982-5.824 3.868-1.975-1.114-1.246-5.69.036-5.231 1.332.477 2.899-2.08 4.777-1.504 1.863.572.458-.36 1.011 2.867z"/><use xlink:href="#a" height="600" width="600" transform="rotate(35.184 -692.252 1187.875)"/><use xlink:href="#b" height="600" width="600" transform="rotate(35.184 -671.101 1128.764)"/><use xlink:href="#c" height="600" width="600" transform="rotate(35.184 -630.437 1008.948)"/><path fill="#673bb7" d="M535.576 466.831c.539 3.144-3.849 4.982-5.824 3.868-1.976-1.114-1.247-5.69.036-5.231 1.332.476 2.898-2.08 4.777-1.504 1.862.572.458-.36 1.011 2.867z"/><use xlink:href="#a" height="600" width="600" transform="rotate(-142.875 149.442 7.881)"/><use xlink:href="#b" height="600" width="600" transform="rotate(-119.509 217.525 -31.534)"/><use xlink:href="#c" height="600" width="600" transform="rotate(-43.279 562.817 -306.484)"/><path fill="#673bb7" d="M298.454 219.293c-1.916-2.55 1.146-6.19 3.412-6.103 2.267.088 3.71 4.491 2.36 4.67-1.403.184-1.628 3.175-3.562 3.52-1.918.343-.243.53-2.21-2.087z"/><use xlink:href="#a" height="600" width="600" transform="rotate(-43.279 424.81 -822.624)"/><use xlink:href="#b" height="600" width="600" transform="rotate(61.69 -18.946 380.066)"/><use xlink:href="#c" height="600" width="600" transform="rotate(-43.279 414.278 -687.792)"/><path fill="#673bb7" d="M520.706 22.71c3.188.1 4.111 4.767 2.625 6.48-1.487 1.712-5.824.083-5.118-1.082.733-1.21-1.46-3.256-.518-4.981.933-1.71-.262-.521 3.01-.418z"/><use xlink:href="#a" height="600" width="600" transform="rotate(-144.13 157.214 -11.554)"/><use xlink:href="#b" height="600" width="600" transform="rotate(-43.279 523.386 -402.273)"/><use xlink:href="#c" height="600" width="600" transform="rotate(-43.279 536.394 -361.912)"/><path fill="#673bb7" d="M326.55 189.717c-1.984-2.497.98-6.218 3.248-6.191 2.267.027 3.828 4.39 2.483 4.604-1.397.222-1.542 3.218-3.466 3.615-1.909.394-.23.537-2.265-2.028z"/><use xlink:href="#a" height="600" width="600" transform="rotate(-136.156 183.3 -61.067)"/><use xlink:href="#b" height="600" width="600" transform="rotate(121.873 142.429 155.732)"/><use xlink:href="#c" height="600" width="600" transform="rotate(-127.282 232.523 -45.683)"/><path fill="#673bb7" d="M339.667 171.873c-1.667-2.72 1.725-6.054 3.973-5.753 2.248.302 3.27 4.821 1.908 4.87-1.414.053-1.92 3.009-3.878 3.17-1.942.16-.292.505-2.003-2.287z"/><use xlink:href="#a" height="600" width="600" transform="rotate(157.989 111.37 67.12)"/><use xlink:href="#b" height="600" width="600" transform="rotate(63.451 -37.395 357.802)"/><use xlink:href="#c" height="600" width="600" transform="rotate(77.992 38.55 254.956)"/><path fill="#673bb7" d="M525.425 26.137c3.188.101 4.112 4.768 2.625 6.48-1.486 1.713-5.824.084-5.118-1.08.733-1.21-1.459-3.257-.518-4.982.933-1.71-.261-.521 3.011-.418z"/><use xlink:href="#a" height="600" width="600" transform="rotate(-43.279 377.95 -766.19)"/><use xlink:href="#b" height="600" width="600" transform="rotate(-43.279 397.882 -729.911)"/><use xlink:href="#c" height="600" width="600" transform="rotate(-43.279 428.507 -621.383)"/><path fill="#673bb7" d="M478.345 42.339c3.187.1 4.111 4.767 2.625 6.48-1.487 1.712-5.825.083-5.119-1.082.734-1.21-1.459-3.256-.518-4.98.933-1.711-.261-.522 3.012-.418z"/><use xlink:href="#a" height="600" width="600" transform="rotate(-137.856 211.676 -123.53)"/><use xlink:href="#b" height="600" width="600" transform="rotate(-8.41 1639.248 -3102.721)"/><use xlink:href="#c" height="600" width="600" transform="rotate(137.315 161.748 82.062)"/><path fill="#673bb7" d="M425.512 87.37c2.983-1.128 5.625 2.828 4.908 4.98-.717 2.151-5.347 2.309-5.142.962.214-1.398-2.595-2.448-2.387-4.402.206-1.938-.441-.381 2.621-1.54z"/><use xlink:href="#a" height="600" width="600" transform="rotate(-45.742 390.34 -639.184)"/><use xlink:href="#b" height="600" width="600" transform="rotate(-38.265 469.599 -704.98)"/><use xlink:href="#c" height="600" width="600" transform="rotate(-116.861 272.334 -148.72)"/><use xlink:href="#a" height="600" width="600" transform="rotate(46.828 -156.723 626.562)"/><use xlink:href="#b" height="600" width="600" transform="rotate(-115.503 274.014 -121.15)"/><use xlink:href="#c" height="600" width="600" transform="rotate(-63.615 425.273 -326.88)"/><path fill="#673bb7" d="M443.492 153.969c2.082 2.415-.73 6.253-2.997 6.316-2.267.064-4.001-4.232-2.666-4.5 1.387-.279 1.411-3.278 3.318-3.752 1.891-.47.207-.545 2.345 1.936z"/><use xlink:href="#a" height="600" width="600" transform="rotate(-43.279 438.36 -829.724)"/><use xlink:href="#b" height="600" width="600" transform="rotate(-43.279 455.573 -781.234)"/><use xlink:href="#c" height="600" width="600" transform="rotate(-43.279 492.479 -680.032)"/><path fill="#673bb7" d="M537.513 66.999c3.188.1 4.112 4.767 2.625 6.48-1.486 1.713-5.824.083-5.118-1.082.733-1.21-1.459-3.256-.518-4.98.933-1.711-.262-.522 3.011-.418z"/><use xlink:href="#a" height="600" width="600" transform="rotate(-30.492 623.439 -1008.533)"/><use xlink:href="#b" height="600" width="600" transform="rotate(2.056 -6646.519 14153.542)"/><use xlink:href="#c" height="600" width="600" transform="rotate(59.039 62.029 383.687)"/><path fill="#673bb7" d="M472.675 124.423c3.188.101 4.111 4.768 2.625 6.48-1.487 1.713-5.824.084-5.118-1.08.733-1.21-1.46-3.257-.518-4.982.933-1.71-.262-.521 3.01-.418z"/><use xlink:href="#a" height="600" width="600" transform="rotate(-43.279 461.235 -760.652)"/><use xlink:href="#b" height="600" width="600" transform="rotate(-43.279 476.642 -719.727)"/><use xlink:href="#c" height="600" width="600" transform="rotate(-43.279 517.748 -611.046)"/><path fill="#673bb7" d="M488.969 109.753c3.188.1 4.111 4.767 2.625 6.48-1.487 1.713-5.824.083-5.118-1.081.733-1.21-1.46-3.257-.518-4.982.933-1.71-.262-.52 3.01-.417z"/><use xlink:href="#a" height="600" width="600" transform="rotate(-52.341 565.017 -45.652)"/><use xlink:href="#b" height="600" width="600" transform="rotate(-52.341 576.565 -17.77)"/><use xlink:href="#c" height="600" width="600" transform="rotate(-157.001 125.504 115.491)"/><path fill="#673bb7" d="M141.043 395.667c2.562 1.9.661 6.26-1.536 6.82-2.198.56-4.834-3.25-3.59-3.805 1.292-.576.657-3.507 2.413-4.388 1.742-.874.082-.578 2.713 1.373z"/><use xlink:href="#a" height="600" width="600" transform="rotate(-52.341 474.686 -219.2)"/><use xlink:href="#c" height="600" width="600" transform="rotate(-52.341 527.408 -106.172)"/><path fill="#673bb7" d="M208.095 309.724c-1.353-2.889 2.39-5.824 4.59-5.273 2.2.55 2.71 5.156 1.352 5.053-1.41-.106-2.244 2.775-4.208 2.716-1.947-.058-.346.47-1.734-2.496z"/><use xlink:href="#a" height="600" width="600" transform="rotate(-52.341 528.875 -102.032)"/><use xlink:href="#b" height="600" width="600" transform="rotate(-130.273 164.488 92.093)"/><use xlink:href="#c" height="600" width="600" transform="rotate(-52.341 560.76 -33.183)"/><path fill="#673bb7" d="M167.402 356.462c3.164-.402 4.811 4.06 3.613 5.986-1.198 1.925-5.738 1-5.225-.262.534-1.31-1.953-2.986-1.296-4.837.652-1.836-.34-.474 2.908-.887z"/><use xlink:href="#a" height="600" width="600" transform="rotate(-145.324 114.844 71.554)"/><use xlink:href="#b" height="600" width="600" transform="rotate(-125.449 184.519 48.645)"/><use xlink:href="#c" height="600" width="600" transform="rotate(-52.341 548.82 -55.765)"/><path fill="#673bb7" d="M178.844 341.745c3.164-.402 4.811 4.06 3.613 5.986-1.198 1.925-5.738 1-5.224-.262.533-1.31-1.954-2.986-1.297-4.837.652-1.837-.34-.474 2.908-.887z"/><use xlink:href="#a" height="600" width="600" transform="rotate(-160.397 52.045 166.5)"/><use xlink:href="#b" height="600" width="600" transform="rotate(-56.111 588.504 -29.324)"/><use xlink:href="#c" height="600" width="600" transform="rotate(-56.111 602.022 1.665)"/><path fill="#673bb7" d="M182.022 430.49c3.13-.61 5.068 3.735 3.999 5.735-1.07 2-5.66 1.375-5.23.082.446-1.342-2.146-2.85-1.612-4.741.53-1.875-.37-.45 2.843-1.076z"/><use xlink:href="#a" height="600" width="600" transform="rotate(-56.111 488.075 -218.938)"/><use xlink:href="#b" height="600" width="600" transform="matrix(-.6362 -.88273 .90627 -.50753 326.259 224.059)"/><use xlink:href="#c" height="600" width="600" transform="rotate(-56.111 542.522 -110.155)"/><path fill="#673bb7" d="M249.16 334.074c3.13-.61 5.067 3.735 3.998 5.735-1.069 2-5.66 1.375-5.23.082.446-1.342-2.146-2.85-1.611-4.741.53-1.876-.371-.45 2.843-1.076z"/><use xlink:href="#a" height="600" width="600" transform="rotate(40.988 -537.259 578.374)"/><use xlink:href="#b" height="600" width="600" transform="rotate(-136.705 175.842 106.785)"/><use xlink:href="#c" height="600" width="600" transform="rotate(132.46 -17.336 198.252)"/><path fill="#673bb7" d="M208.392 390.553c3.13-.61 5.067 3.735 3.998 5.736-1.069 2-5.66 1.375-5.23.082.446-1.342-2.146-2.851-1.612-4.742.53-1.875-.37-.45 2.844-1.076z"/><use xlink:href="#a" height="600" width="600" transform="rotate(32.844 -743.611 686.34)"/><use xlink:href="#b" height="600" width="600" transform="rotate(-56.111 531.132 -138.164)"/><use xlink:href="#c" height="600" width="600" transform="rotate(-56.111 562.942 -67.651)"/><path fill="#673bb7" d="M223.442 378.825c-2.904 1.319-5.796-2.458-5.22-4.652.576-2.193 5.187-2.65 5.069-1.293-.123 1.41 2.748 2.275 2.667 4.238-.08 1.947.465.352-2.516 1.707z"/><use xlink:href="#a" height="600" width="600" transform="rotate(-165.481 50.122 224.865)"/><use xlink:href="#b" height="600" width="600" transform="rotate(-64.157 573.75 105.575)"/><use xlink:href="#c" height="600" width="600" transform="rotate(-64.157 589.604 128.024)"/><path fill="#673bb7" d="M125.225 543.777c3.014-1.041 5.54 2.99 4.762 5.12-.779 2.13-5.412 2.153-5.167.813.253-1.391-2.524-2.522-2.26-4.47.262-1.93-.43-.393 2.665-1.463z"/><use xlink:href="#a" height="600" width="600" transform="rotate(-163.98 44.806 162.937)"/><use xlink:href="#b" height="600" width="600" transform="rotate(-64.157 464.47 -103.58)"/><path fill="#673bb7" d="M177.663 437.277c3.015-1.042 5.541 2.99 4.762 5.12-.778 2.13-5.412 2.153-5.167.813.254-1.392-2.524-2.523-2.26-4.47.263-1.93-.43-.393 2.665-1.463z"/><use xlink:href="#a" height="600" width="600" transform="rotate(-64.157 527.287 32.975)"/><use xlink:href="#b" height="600" width="600" transform="rotate(-64.157 546.262 61.336)"/><use xlink:href="#c" height="600" width="600" transform="rotate(-64.157 559.511 87.12)"/><path fill="#673bb7" d="M145.526 498.861c3.014-1.041 5.54 2.99 4.762 5.12-.779 2.13-5.412 2.153-5.168.813.254-1.391-2.523-2.522-2.259-4.47.262-1.93-.43-.393 2.665-1.463z"/><use xlink:href="#a" height="600" width="600" transform="rotate(-155.356 63.14 179.907)"/><use xlink:href="#b" height="600" width="600" transform="rotate(-64.157 513.438 10.411)"/><use xlink:href="#c" height="600" width="600" transform="rotate(-64.157 548.581 70.502)"/><path fill="#673bb7" d="M155.055 478.125c3.015-1.042 5.54 2.99 4.762 5.12-.778 2.13-5.412 2.153-5.167.813.254-1.392-2.524-2.523-2.26-4.47.263-1.93-.43-.393 2.665-1.463z"/><use xlink:href="#a" height="600" width="600" transform="rotate(-69.461 471.669 106.563)"/><use xlink:href="#b" height="600" width="600" transform="rotate(-69.461 490.44 134.704)"/><use xlink:href="#c" height="600" width="600" transform="rotate(-69.461 504.367 160.779)"/><path fill="#673bb7" d="M77.961 530.307c2.905-1.316 5.793 2.464 5.215 4.657-.579 2.193-5.19 2.645-5.07 1.288.124-1.409-2.746-2.278-2.663-4.241.083-1.947-.465-.353 2.518-1.704z"/><use xlink:href="#a" height="600" width="600" transform="rotate(132.492 -8.59 186.977)"/><use xlink:href="#b" height="600" width="600" transform="rotate(-69.461 411.62 16.104)"/><use xlink:href="#c" height="600" width="600" transform="rotate(-69.461 445.638 75.456)"/><path fill="#673bb7" d="M125.418 415.87c2.906-1.316 5.794 2.464 5.215 4.657-.578 2.193-5.19 2.645-5.07 1.288.124-1.409-2.746-2.278-2.663-4.241.083-1.947-.464-.353 2.518-1.704z"/><use xlink:href="#a" height="600" width="600" transform="rotate(-69.461 446.445 76.863)"/><use xlink:href="#b" height="600" width="600" transform="rotate(-69.461 465.337 102.454)"/><use xlink:href="#c" height="600" width="600" transform="rotate(-69.461 478.787 125.893)"/><path fill="#673bb7" d="M96.028 484.786c2.905-1.316 5.793 2.465 5.214 4.657-.578 2.193-5.19 2.645-5.07 1.288.124-1.409-2.746-2.278-2.662-4.241.082-1.947-.465-.353 2.518-1.704z"/><use xlink:href="#a" height="600" width="600" transform="rotate(-69.461 412.81 26.918)"/><use xlink:href="#b" height="600" width="600" transform="rotate(-69.461 431.171 54.894)"/><use xlink:href="#c" height="600" width="600" transform="rotate(-69.461 467.088 109.867)"/><path fill="#673bb7" d="M104.216 463.412c2.905-1.316 5.793 2.464 5.215 4.657-.578 2.193-5.19 2.645-5.07 1.288.124-1.41-2.746-2.279-2.663-4.242.083-1.946-.465-.352 2.518-1.703z"/><use xlink:href="#a" height="600" width="600" transform="rotate(-45.227 405.572 -616.493)"/><use xlink:href="#b" height="600" width="600" transform="rotate(-57.512 382.763 -385.053)"/><use xlink:href="#c" height="600" width="600" transform="rotate(110.24 121.474 148.157)"/><path fill="#673bb7" d="M548.182 45.918c-3.187.125-4.437-4.465-3.075-6.279 1.362-1.813 5.803-.494 5.181.718-.646 1.258 1.685 3.145.869 4.932-.81 1.772.297.502-2.975.63z"/><use xlink:href="#a" height="600" width="600" transform="rotate(-142.327 156.401 -7.183)"/><use xlink:href="#b" height="600" width="600" transform="rotate(50.764 -249.43 410.404)"/><use xlink:href="#c" height="600" width="600" transform="rotate(132.674 231.445 75.127)"/><path fill="#673bb7" d="M300.505 211.834c-1.786-2.642 1.455-6.125 3.714-5.924 2.259.201 3.48 4.671 2.122 4.781-1.41.115-1.784 3.09-3.733 3.339-1.933.246-.269.517-2.103-2.196z"/><use xlink:href="#a" height="600" width="600" transform="rotate(-125.623 232.223 -179.706)"/><use xlink:href="#b" height="600" width="600" transform="rotate(62.398 -61.202 363.338)"/><use xlink:href="#c" height="600" width="600" transform="rotate(64.955 -42.31 311.193)"/><path fill="#673bb7" d="M531.474 28.698c-3.187.124-4.438-4.466-3.076-6.28 1.362-1.813 5.804-.493 5.181.718-.646 1.259 1.686 3.146.869 4.933-.81 1.772.298.501-2.974.629z"/><use xlink:href="#a" height="600" width="600" transform="rotate(-140.586 167.849 -30.172)"/><use xlink:href="#b" height="600" width="600" transform="rotate(153.804 95.732 89.661)"/><use xlink:href="#c" height="600" width="600" transform="rotate(74.911 -22.032 262.417)"/><path fill="#673bb7" d="M124.716 496.988c-3.187.124-4.438-4.465-3.076-6.279 1.362-1.813 5.804-.494 5.182.718-.646 1.258 1.685 3.145.868 4.932-.81 1.772.298.501-2.974.629z"/><use xlink:href="#b" height="600" width="600" transform="rotate(167.779 184.095 47.513)"/><use xlink:href="#c" height="600" width="600" transform="rotate(42.901 -141.87 579.561)"/><path fill="#673bb7" d="M120.615 513.736c1.825 2.616-1.363 6.146-3.625 5.978-2.262-.167-3.549-4.619-2.193-4.749 1.408-.135 1.738-3.116 3.684-3.393 1.929-.275.261-.521 2.134 2.164z"/><use xlink:href="#a" height="600" width="600" transform="rotate(132.674 29.632 171.888)"/><use xlink:href="#b" height="600" width="600" transform="rotate(132.674 49.772 162.909)"/><use xlink:href="#c" height="600" width="600" transform="rotate(56.496 -157.29 337.78)"/><path fill="#673bb7" d="M328.397 255.415c1.829 2.613-1.354 6.148-3.616 5.984-2.262-.164-3.556-4.612-2.2-4.745 1.407-.138 1.732-3.12 3.677-3.4 1.929-.277.26-.521 2.139 2.161z"/><use xlink:href="#a" height="600" width="600" transform="rotate(47.527 -170.28 608.427)"/><use xlink:href="#b" height="600" width="600" transform="rotate(-113.86 228.825 158.586)"/><use xlink:href="#c" height="600" width="600" transform="rotate(132.674 120.835 135.628)"/><path fill="#673bb7" d="M543.488 29.388c1.897 2.564-1.192 6.181-3.458 6.076-2.265-.104-3.676-4.518-2.324-4.686 1.404-.174 1.65-3.163 3.587-3.494 1.921-.328.247-.529 2.195 2.104z"/><use xlink:href="#a" height="600" width="600" transform="rotate(38.962 -356.886 700.122)"/><use xlink:href="#b" height="600" width="600" transform="rotate(-114.782 257.352 -55.417)"/><use xlink:href="#c" height="600" width="600" transform="rotate(132.674 89.038 148.503)"/><path fill="#673bb7" d="M365.377 226.275c1.664 2.722-1.732 6.053-3.98 5.749-2.247-.304-3.263-4.825-1.902-4.873 1.414-.05 1.924-3.006 3.882-3.165 1.942-.157.292-.504 2 2.29z"/><use xlink:href="#a" height="600" width="600" transform="rotate(123.786 -32.737 205.158)"/><use xlink:href="#b" height="600" width="600" transform="rotate(53.304 -333.237 421.845)"/><use xlink:href="#c" height="600" width="600" transform="rotate(123.786 -.321 186.446)"/><path fill="#673bb7" d="M237.063 355.297c-3.13.615-5.075-3.726-4.009-5.728 1.065-2.002 5.658-1.385 5.23-.092-.444 1.343 2.151 2.847 1.62 4.74-.526 1.875.372.449-2.841 1.08z"/><use xlink:href="#a" height="600" width="600" transform="rotate(123.786 -116.22 248.153)"/><use xlink:href="#b" height="600" width="600" transform="rotate(123.786 -99.134 237.916)"/><use xlink:href="#c" height="600" width="600" transform="rotate(123.786 -58.956 216.51)"/><path fill="#673bb7" d="M172.94 455.932c-3.13.615-5.074-3.727-4.009-5.729 1.066-2.002 5.658-1.385 5.23-.091-.443 1.343 2.151 2.847 1.62 4.738-.526 1.877.372.45-2.84 1.082z"/><use xlink:href="#a" height="600" width="600" transform="rotate(-50.071 569.599 -218.283)"/><use xlink:href="#b" height="600" width="600" transform="rotate(49.573 -426.891 429.262)"/><use xlink:href="#c" height="600" width="600" transform="rotate(146.67 33.582 171.681)"/><path fill="#673bb7" d="M213.257 392.507c-3.13.615-5.075-3.726-4.01-5.728 1.066-2.002 5.659-1.385 5.231-.092-.444 1.343 2.151 2.847 1.62 4.74-.526 1.875.372.449-2.841 1.08z"/><use xlink:href="#a" height="600" width="600" transform="rotate(128.98 -66.307 220.275)"/><use xlink:href="#b" height="600" width="600" transform="rotate(65.277 -344.053 343.717)"/><use xlink:href="#c" height="600" width="600" transform="rotate(123.786 -33.815 203.565)"/><path fill="#673bb7" d="M253.984 336.977c-3.13.615-5.074-3.726-4.009-5.728 1.066-2.002 5.658-1.385 5.23-.092-.443 1.343 2.152 2.847 1.62 4.739-.526 1.876.372.45-2.84 1.08z"/><use xlink:href="#a" height="600" width="600" transform="rotate(123.786 -42.543 170.887)"/><use xlink:href="#b" height="600" width="600" transform="rotate(123.786 -27.97 168.756)"/><use xlink:href="#c" height="600" width="600" transform="rotate(123.786 -11.133 161.46)"/><path fill="#673bb7" d="M195.828 326.834c-3.13.616-5.075-3.726-4.01-5.728 1.066-2.002 5.658-1.385 5.231-.091-.444 1.343 2.15 2.847 1.62 4.738-.527 1.876.372.45-2.841 1.081z"/><use xlink:href="#a" height="600" width="600" transform="rotate(-60.487 462.29 -37.72)"/><use xlink:href="#b" height="600" width="600" transform="rotate(123.786 -106.6 207.377)"/><path fill="#673bb7" d="M105.878 508.04c-3.13.615-5.074-3.727-4.009-5.729 1.066-2.002 5.658-1.385 5.23-.091-.443 1.343 2.151 2.847 1.62 4.738-.526 1.877.372.45-2.84 1.082z"/><use xlink:href="#a" height="600" width="600" transform="rotate(123.786 -69.81 189.227)"/><use xlink:href="#b" height="600" width="600" transform="rotate(123.786 -52.052 178.485)"/><use xlink:href="#c" height="600" width="600" transform="rotate(123.786 -36.784 171.116)"/><path fill="#673bb7" d="M253.844 343.12c1.549 2.788-1.983 5.975-4.216 5.578-2.232-.398-3.059-4.957-1.697-4.949 1.415.01 2.047-2.922 4.01-3 1.947-.076.313-.491 1.903 2.371z"/><use xlink:href="#a" height="600" width="600" transform="rotate(123.786 -105.059 205.38)"/><use xlink:href="#b" height="600" width="600" transform="rotate(123.786 -87.186 194.746)"/><use xlink:href="#c" height="600" width="600" transform="rotate(123.786 -46.825 175.22)"/><use xlink:href="#a" height="600" width="600" transform="rotate(54.099 -243.003 229.68)"/><use xlink:href="#b" height="600" width="600" transform="rotate(54.099 -227.07 193.834)"/><use xlink:href="#c" height="600" width="600" transform="rotate(54.099 -208.001 165.888)"/><path fill="#673bb7" d="M138.819 181.135c-.51 3.148-5.256 3.465-6.764 1.77-1.507-1.694.666-5.786 1.73-4.936 1.106.882 3.417-1.029 5.007.126 1.576 1.145.55-.193.027 3.04z"/><use xlink:href="#a" height="600" width="600" transform="rotate(54.099 -314.495 386.26)"/><use xlink:href="#b" height="600" width="600" transform="rotate(54.099 -296.503 350.947)"/><path fill="#673bb7" d="M204.605 273.37c-.161-3.185 4.413-4.489 6.243-3.148 1.829 1.34.562 5.797-.657 5.19-1.266-.632-3.126 1.721-4.922.925-1.782-.79-.498.304-.664-2.966z"/><use xlink:href="#a" height="600" width="600" transform="rotate(54.099 -266.434 276.065)"/><use xlink:href="#b" height="600" width="600" transform="rotate(54.099 -249.376 240.049)"/><use xlink:href="#c" height="600" width="600" transform="rotate(54.099 -231.47 211.318)"/><path fill="#673bb7" d="M166.265 219.626c-.51 3.149-5.256 3.465-6.764 1.771-1.507-1.694.665-5.786 1.73-4.937 1.105.883 3.417-1.028 5.006.126 1.577 1.145.55-.192.028 3.04z"/><use xlink:href="#b" height="600" width="600" transform="rotate(-17.745 1209.462 -687.887)"/><path fill="#673bb7" d="M180.564 239.254c-.51 3.149-5.256 3.465-6.764 1.771-1.507-1.694.665-5.786 1.73-4.937 1.106.883 3.417-1.028 5.006.126 1.577 1.145.551-.192.028 3.04z"/><use xlink:href="#a" height="600" width="600" transform="rotate(40.27 -500.758 603.541)"/><use xlink:href="#b" height="600" width="600" transform="rotate(40.27 -486.017 560.117)"/><use xlink:href="#c" height="600" width="600" transform="rotate(40.27 -462.437 510.37)"/><path fill="#673bb7" d="M297.64 350.413c.258 3.179-4.275 4.62-6.144 3.336-1.87-1.285-.738-5.778.5-5.207 1.283.592 3.07-1.816 4.89-1.075 1.805.735.49-.318.754 2.946z"/><use xlink:href="#a" height="600" width="600" transform="rotate(40.27 -589.2 825.28)"/><use xlink:href="#b" height="600" width="600" transform="rotate(40.27 -573.478 776.812)"/><use xlink:href="#c" height="600" width="600" transform="rotate(40.27 -534.042 675.426)"/><path fill="#673bb7" d="M385.328 427.372c.258 3.179-4.275 4.62-6.144 3.336-1.869-1.285-.737-5.778.5-5.207 1.284.592 3.072-1.816 4.891-1.075 1.805.735.489-.318.753 2.946z"/><use xlink:href="#a" height="600" width="600" transform="rotate(40.27 -526.861 669.884)"/><use xlink:href="#b" height="600" width="600" transform="rotate(40.27 -514.15 623.526)"/><use xlink:href="#c" height="600" width="600" transform="rotate(40.27 -497.115 580.57)"/><path fill="#673bb7" d="M331.55 383.44c.259 3.18-4.274 4.621-6.143 3.337-1.87-1.285-.738-5.778.5-5.208 1.284.593 3.071-1.815 4.89-1.074 1.805.735.49-.319.754 2.945z"/><use xlink:href="#a" height="600" width="600" transform="rotate(40.27 -567.974 761.64)"/><use xlink:href="#b" height="600" width="600" transform="rotate(40.27 -552.175 712.468)"/><use xlink:href="#c" height="600" width="600" transform="rotate(40.27 -510.416 612.19)"/><path fill="#673bb7" d="M345.988 396.092c.258 3.179-4.275 4.62-6.144 3.336-1.869-1.285-.737-5.778.5-5.207 1.284.592 3.072-1.816 4.891-1.075 1.805.735.489-.318.753 2.946z"/><use xlink:href="#b" height="600" width="600" transform="rotate(-22.689 1007.642 -547.454)"/><use xlink:href="#c" height="600" width="600" transform="rotate(-125.534 189.195 26.148)"/><path fill="#673bb7" d="M190.457 253.31c2.848-1.435 5.89 2.222 5.403 4.437-.486 2.215-5.075 2.858-5.012 1.497.066-1.413-2.838-2.162-2.836-4.127.001-1.949-.48-.333 2.445-1.807z"/><use xlink:href="#a" height="600" width="600" transform="rotate(-125.534 73.199 -31.643)"/><use xlink:href="#b" height="600" width="600" transform="rotate(-125.534 93.936 -21.659)"/><use xlink:href="#c" height="600" width="600" transform="rotate(-125.534 128.595 -3.444)"/><path fill="#673bb7" d="M117.02 155.236c.529-3.145 5.277-3.432 6.774-1.728 1.497 1.704-.702 5.783-1.761 4.926-1.1-.89-3.423 1.007-5.006-.158-1.569-1.155-.551.189-.008-3.04z"/><use xlink:href="#a" height="600" width="600" transform="rotate(-125.534 132.637 -2.21)"/><use xlink:href="#b" height="600" width="600" transform="rotate(-125.534 148.666 6.134)"/><use xlink:href="#c" height="600" width="600" transform="rotate(-125.534 166.062 16.085)"/><path fill="#673bb7" d="M155.682 212.948c.53-3.145 5.278-3.432 6.774-1.728 1.497 1.704-.702 5.783-1.76 4.926-1.1-.89-3.424 1.007-5.006-.158-1.57-1.155-.552.189-.008-3.04z"/><use xlink:href="#a" height="600" width="600" transform="rotate(-125.534 119.784 -8.126)"/><use xlink:href="#b" height="600" width="600" transform="rotate(-125.534 114.084 -11.867)"/><use xlink:href="#c" height="600" width="600" transform="rotate(-125.534 151.948 8.945)"/><path fill="#673bb7" d="M142.045 194.65c.53-3.146 5.278-3.432 6.775-1.728 1.496 1.704-.703 5.782-1.762 4.925-1.1-.89-3.423 1.007-5.005-.158-1.57-1.155-.552.19-.008-3.04z"/><use xlink:href="#a" height="600" width="600" transform="rotate(-130.229 170.553 -10.646)"/><use xlink:href="#b" height="600" width="600" transform="rotate(156.569 70.157 104.132)"/><use xlink:href="#c" height="600" width="600" transform="rotate(-130.229 206.74 6.661)"/><path fill="#673bb7" d="M253.762 232.54c1.065 3.006-2.946 5.563-5.082 4.8-2.136-.762-2.195-5.395-.853-5.16 1.393.243 2.503-2.543 4.452-2.294 1.932.247.39-.433 1.483 2.653z"/><use xlink:href="#b" height="600" width="600" transform="rotate(-130.229 107.229 -40.419)"/><use xlink:href="#c" height="600" width="600" transform="matrix(-1.14649 .05883 -.11334 -1.07916 161.103 43.114)"/><path fill="#673bb7" d="M175.287 142.885c.245 3.18-4.294 4.604-6.158 3.312-1.863-1.292-.714-5.78.52-5.205 1.282.598 3.08-1.803 4.896-1.055 1.802.742.49-.317.742 2.948z"/><use xlink:href="#a" height="600" width="600" transform="rotate(-130.229 142.677 -21.386)"/><use xlink:href="#b" height="600" width="600" transform="rotate(60.706 -179.912 289.75)"/><use xlink:href="#c" height="600" width="600" transform="rotate(65.698 -129.86 224.246)"/><path fill="#673bb7" d="M216.712 192.649c-.382 3.166-5.111 3.675-6.687 2.043-1.575-1.632.43-5.809 1.529-5.003 1.14.837 3.372-1.166 5.007-.077 1.622 1.08.543-.214.15 3.037z"/><use xlink:href="#a" height="600" width="600" transform="rotate(-35.604 470.49 -411.971)"/><use xlink:href="#b" height="600" width="600" transform="rotate(-130.229 129.217 -27.614)"/><use xlink:href="#c" height="600" width="600" transform="rotate(-130.229 166.235 -9.038)"/><use xlink:href="#a" height="600" width="600" transform="rotate(-137.443 271.073 46.12)"/><use xlink:href="#b" height="600" width="600" transform="rotate(142.193 70.694 174.711)"/><use xlink:href="#c" height="600" width="600" transform="rotate(-137.443 305.39 60.974)"/><path fill="#673bb7" d="M410.286 384.758c-.13-3.187 4.456-4.447 6.273-3.088 1.816 1.358.506 5.802-.707 5.183-1.26-.644-3.142 1.691-4.93.878-1.774-.806-.501.299-.636-2.973z"/><use xlink:href="#a" height="600" width="600" transform="rotate(-137.443 188.848 18.437)"/><use xlink:href="#b" height="600" width="600" transform="rotate(-137.443 206.77 22.924)"/><use xlink:href="#c" height="600" width="600" transform="rotate(-137.443 246.279 39.33)"/><path fill="#673bb7" d="M322.064 311.466c-.131-3.187 4.456-4.447 6.272-3.089 1.816 1.359.506 5.803-.707 5.183-1.26-.643-3.142 1.692-4.93.879-1.774-.807-.501.299-.635-2.973z"/><use xlink:href="#a" height="600" width="600" transform="rotate(-137.443 248.744 38.916)"/><use xlink:href="#b" height="600" width="600" transform="rotate(-137.443 266.212 45.504)"/><use xlink:href="#c" height="600" width="600" transform="rotate(-137.443 282.172 53.414)"/><path fill="#673bb7" d="M374.574 356.081c-.131-3.186 4.456-4.446 6.272-3.088 1.816 1.358.506 5.803-.707 5.183-1.26-.643-3.142 1.691-4.93.878-1.774-.806-.501.3-.635-2.973z"/><use xlink:href="#a" height="600" width="600" transform="rotate(-137.443 213.049 26.865)"/><use xlink:href="#b" height="600" width="600" transform="rotate(-137.443 230.578 33.89)"/><use xlink:href="#c" height="600" width="600" transform="rotate(-137.443 268.51 49.551)"/><path fill="#673bb7" d="M353.6 338.832c-.13-3.186 4.456-4.447 6.272-3.088 1.817 1.358.507 5.802-.707 5.183-1.26-.644-3.141 1.691-4.93.878-1.774-.806-.5.3-.635-2.973z"/><use xlink:href="#a" height="600" width="600" transform="rotate(29.358 -896.86 1121.373)"/><use xlink:href="#b" height="600" width="600" transform="rotate(29.358 -883.65 1049.313)"/><use xlink:href="#c" height="600" width="600" transform="rotate(29.358 -875.595 994.394)"/><path fill="#673bb7" d="M431.808 468.322c.855 3.073-3.323 5.347-5.401 4.44-2.079-.908-1.818-5.534-.496-5.208 1.374.339 2.673-2.364 4.6-1.981 1.911.38.42-.405 1.297 2.75z"/><use xlink:href="#a" height="600" width="600" transform="rotate(29.358 -975.748 1422.087)"/><use xlink:href="#b" height="600" width="600" transform="rotate(29.358 -941.593 1352.442)"/><use xlink:href="#c" height="600" width="600" transform="rotate(29.358 -926.604 1207.448)"/><path fill="#673bb7" d="M530.969 511.276c.855 3.073-3.323 5.347-5.402 4.44-2.078-.909-1.818-5.535-.495-5.208 1.373.338 2.672-2.365 4.6-1.981 1.91.38.419-.406 1.297 2.749z"/><use xlink:href="#a" height="600" width="600" transform="rotate(29.358 -934.606 1210.827)"/><use xlink:href="#b" height="600" width="600" transform="rotate(29.358 -918.551 1141.136)"/><use xlink:href="#c" height="600" width="600" transform="rotate(29.358 -898.21 1083.886)"/><path fill="#673bb7" d="M475.395 491.339c.855 3.072-3.323 5.347-5.402 4.439-2.078-.908-1.817-5.534-.495-5.208 1.374.34 2.673-2.364 4.6-1.98 1.91.38.42-.406 1.297 2.749z"/><use xlink:href="#a" height="600" width="600" transform="rotate(29.358 -970.674 1341.312)"/><use xlink:href="#b" height="600" width="600" transform="rotate(29.358 -949.064 1269.617)"/><use xlink:href="#c" height="600" width="600" transform="rotate(29.358 -907.887 1124.433)"/><path fill="#673bb7" d="M495.508 502.122c.855 3.072-3.323 5.347-5.401 4.439-2.079-.908-1.818-5.534-.496-5.208 1.374.34 2.673-2.364 4.6-1.98 1.91.38.42-.406 1.297 2.749z"/><use xlink:href="#a" height="600" width="600" transform="rotate(151.454 -36.696 -3.043)"/><use xlink:href="#b" height="600" width="600" transform="rotate(-111.674 68.62 -85.616)"/><use xlink:href="#c" height="600" width="600" transform="rotate(57.557 -93.337 40.13)"/><path fill="#673bb7" d="M66.545 70.04c-.698 3.113-5.455 3.143-6.858 1.36-1.403-1.782 1.013-5.736 2.024-4.823 1.05.947 3.473-.82 4.99.428 1.505 1.238.561-.16-.156 3.036z"/><use xlink:href="#a" height="600" width="600" transform="rotate(-121.851 68.592 -40.044)"/><use xlink:href="#b" height="600" width="600" transform="rotate(57.557 -194.11 155.25)"/><use xlink:href="#c" height="600" width="600" transform="rotate(57.557 -157.195 90.01)"/><path fill="#673bb7" d="M101.836 129.405c-.698 3.112-5.455 3.142-6.858 1.36-1.403-1.782 1.013-5.736 2.024-4.823 1.05.947 3.473-.821 4.99.427 1.505 1.238.561-.159-.156 3.036z"/><use xlink:href="#a" height="600" width="600" transform="rotate(-117.592 38.43 -64.562)"/><use xlink:href="#b" height="600" width="600" transform="rotate(90.648 -83.003 46.036)"/><use xlink:href="#c" height="600" width="600" transform="rotate(19.015 -473.273 185.367)"/><path fill="#673bb7" d="M61.108 58.342c-.699 3.112-5.456 3.142-6.858 1.36-1.403-1.782 1.013-5.736 2.024-4.824 1.05.948 3.473-.82 4.99.428 1.504 1.238.56-.16-.156 3.036z"/><use xlink:href="#a" height="600" width="600" transform="rotate(57.557 -193.987 156.27)"/><use xlink:href="#b" height="600" width="600" transform="rotate(171.063 9.877 4.996)"/><use xlink:href="#c" height="600" width="600" transform="rotate(57.557 -140.718 62.433)"/><path fill="#673bb7" d="M80.606 95.235c-.698 3.112-5.455 3.142-6.858 1.36-1.403-1.782 1.013-5.736 2.024-4.824 1.05.948 3.473-.82 4.99.428 1.505 1.238.561-.16-.156 3.036z"/><use xlink:href="#c" height="600" width="600" transform="rotate(57.557 -84.828 39.869)"/><path fill="#673bb7" d="M66.432 35.905c-.698 3.112-5.455 3.142-6.858 1.36-1.403-1.783 1.013-5.736 2.024-4.824 1.05.948 3.473-.82 4.99.428 1.505 1.238.561-.16-.156 3.036z"/><use xlink:href="#a" height="600" width="600" transform="rotate(57.557 -159.726 211.545)"/><use xlink:href="#b" height="600" width="600" transform="rotate(57.557 -145.479 179.267)"/><use xlink:href="#c" height="600" width="600" transform="rotate(57.557 -109.965 117.675)"/><path fill="#673bb7" d="M140.766 91.925c-.698 3.112-5.455 3.142-6.858 1.36-1.403-1.783 1.013-5.736 2.024-4.824 1.05.948 3.473-.82 4.99.428 1.505 1.238.561-.16-.156 3.036z"/><use xlink:href="#a" height="600" width="600" transform="rotate(57.557 -137.864 133.485)"/><use xlink:href="#b" height="600" width="600" transform="rotate(57.557 -116.724 72.008)"/><use xlink:href="#c" height="600" width="600" transform="rotate(57.557 -106.416 25.9)"/><path fill="#673bb7" d="M104.107 49.113c-.699 3.112-5.456 3.142-6.858 1.36-1.403-1.782 1.013-5.736 2.024-4.823 1.05.947 3.473-.821 4.99.427 1.504 1.238.56-.159-.156 3.036z"/><use xlink:href="#a" height="600" width="600" transform="rotate(-29.502 337.16 -422.153)"/><use xlink:href="#b" height="600" width="600" transform="rotate(-9.584 1144.133 -1065.16)"/><use xlink:href="#c" height="600" width="600" transform="rotate(57.557 -93.124 75.385)"/><path fill="#673bb7" d="M117 61.433c-.698 3.112-5.455 3.142-6.858 1.36-1.402-1.782 1.013-5.736 2.025-4.823 1.05.947 3.472-.82 4.99.427 1.504 1.239.56-.158-.157 3.036z"/><use xlink:href="#a" height="600" width="600" y="155.165" x="634.616"/><use xlink:href="#b" height="600" width="600" y="155.474" x="595.458"/><use xlink:href="#c" height="600" width="600" y="152.853" x="564.779"/><path fill="#673bb7" d="M536.73 61.666c2.252 2.26-.275 6.29-2.531 6.518-2.257.227-4.298-3.932-2.985-4.296 1.363-.378 1.17-3.371 3.038-3.982 1.852-.606.166-.559 2.478 1.76z"/><use xlink:href="#a" height="600" width="600" y="142.832" x="657.74"/><use xlink:href="#b" height="600" width="600" y="179.215" x="581.583"/><use xlink:href="#c" height="600" width="600" transform="matrix(1.26462 0 0 1.03781 544.827 146.787)"/><path fill="#673bb7" d="M555.076 37.77c2.251 2.26-.275 6.29-2.532 6.518-2.256.228-4.297-3.932-2.984-4.296 1.363-.378 1.17-3.371 3.037-3.982 1.852-.605.167-.558 2.479 1.76z"/><use xlink:href="#a" height="600" width="600" y="156.549" x="157.593"/><use xlink:href="#b" height="600" width="600" y="150.708" x="116.476"/><use xlink:href="#c" height="600" width="600" y="145.004" x="84.255"/><path fill="#673bb7" d="M92.744 39.018c2.252 2.258-.275 6.289-2.531 6.517-2.257.228-4.298-3.932-2.985-4.296 1.363-.378 1.17-3.371 3.038-3.982 1.852-.605.166-.559 2.478 1.76z"/><use xlink:href="#a" height="600" width="600" y="135.137" x="180.609"/><use xlink:href="#b" height="600" width="600" y="145.004" x="146.384"/><use xlink:href="#c" height="600" width="600" y="154.408" x="62.98"/><path fill="#673bb7" d="M74.553 41.176c2.251 2.259-.275 6.29-2.532 6.517-2.256.228-4.297-3.932-2.985-4.296 1.363-.378 1.17-3.37 3.038-3.981 1.852-.606.167-.56 2.479 1.76z"/><use xlink:href="#a" height="600" width="600" y="679.177" x="167.473"/><use xlink:href="#b" height="600" width="600" transform="rotate(-143.291 126.028 217.053)"/><use xlink:href="#c" height="600" width="600" y="689.968" x="98.407"/><path fill="#673bb7" d="M117.379 558.853c2.251 2.259-.275 6.29-2.532 6.517-2.256.228-4.297-3.932-2.984-4.296 1.363-.378 1.17-3.37 3.037-3.981 1.852-.606.167-.56 2.479 1.76z"/><use xlink:href="#a" height="600" width="600" y="682.106" x="192.756"/><use xlink:href="#b" height="600" width="600" transform="rotate(49.945 -699.077 413.613)"/><use xlink:href="#c" height="600" width="600" y="678.868" x="85.919"/><path fill="#673bb7" d="M93.946 573.961c2.251 2.26-.275 6.29-2.532 6.517-2.256.228-4.297-3.931-2.985-4.296 1.364-.377 1.17-3.37 3.038-3.981 1.852-.606.167-.559 2.479 1.76z"/><use xlink:href="#a" height="600" width="600" y="620.148" x="630.607"/><use xlink:href="#b" height="600" width="600" y="621.227" x="594.378"/><use xlink:href="#c" height="600" width="600" y="618.606" x="563.699"/><path fill="#673bb7" d="M572.188 512.62c2.252 2.259-.275 6.29-2.531 6.517-2.257.228-4.298-3.932-2.985-4.296 1.363-.378 1.17-3.37 3.038-3.981 1.852-.606.167-.56 2.478 1.76z"/><use xlink:href="#a" height="600" width="600" y="612.44" x="658.203"/><use xlink:href="#b" height="600" width="600" y="611.052" x="620.278"/><use xlink:href="#c" height="600" width="600" y="609.51" x="543.812"/><path fill="#673bb7" d="M553.997 503.524c2.251 2.26-.275 6.29-2.532 6.517-2.256.228-4.297-3.931-2.985-4.295 1.364-.379 1.17-3.371 3.038-3.982 1.852-.606.167-.559 2.479 1.76z"/><use xlink:href="#a" height="600" width="600" y="572.183" x="565.2"/><use xlink:href="#b" height="600" width="600" y="573.262" x="528.971"/><use xlink:href="#c" height="600" width="600" y="570.641" x="498.292"/><path fill="#673bb7" d="M506.781 464.655c2.252 2.259-.275 6.29-2.531 6.517-2.257.228-4.298-3.932-2.985-4.296 1.363-.378 1.17-3.37 3.038-3.981 1.852-.606.167-.56 2.478 1.76z"/><use xlink:href="#a" height="600" width="600" y="564.475" x="592.796"/><use xlink:href="#b" height="600" width="600" y="563.087" x="554.871"/><use xlink:href="#c" height="600" width="600" y="561.545" x="478.405"/><path fill="#673bb7" d="M488.59 455.56c2.251 2.258-.275 6.289-2.532 6.516-2.256.228-4.297-3.932-2.985-4.296 1.364-.378 1.17-3.37 3.038-3.981 1.852-.606.167-.559 2.479 1.76z"/><use xlink:href="#a" height="600" width="600" y="593.985" x="594.851"/><use xlink:href="#b" height="600" width="600" y="595.064" x="558.623"/><use xlink:href="#c" height="600" width="600" y="592.443" x="527.944"/><path fill="#673bb7" d="M536.432 486.457c2.252 2.26-.275 6.29-2.531 6.517-2.257.228-4.297-3.931-2.985-4.296 1.363-.378 1.17-3.37 3.038-3.981 1.852-.606.167-.559 2.478 1.76z"/><use xlink:href="#a" height="600" width="600" y="586.277" x="622.447"/><use xlink:href="#b" height="600" width="600" y="584.889" x="584.522"/><use xlink:href="#c" height="600" width="600" y="583.348" x="508.056"/><path fill="#673bb7" d="M518.24 477.361c2.252 2.26-.274 6.29-2.53 6.518-2.257.227-4.298-3.932-2.985-4.296 1.363-.378 1.17-3.371 3.037-3.982 1.852-.606.167-.559 2.479 1.76z"/><use xlink:href="#a" height="600" width="600" y="627.997" x="191.072"/><use xlink:href="#b" height="600" width="600" y="629.076" x="154.844"/><use xlink:href="#c" height="600" width="600" y="626.455" x="124.165"/><path fill="#673bb7" d="M132.653 520.469c2.252 2.259-.275 6.29-2.531 6.517-2.257.228-4.297-3.932-2.985-4.296 1.363-.378 1.17-3.37 3.038-3.981 1.852-.606.167-.56 2.478 1.76z"/><use xlink:href="#a" height="600" width="600" y="620.289" x="218.668"/><use xlink:href="#b" height="600" width="600" y="618.901" x="180.743"/><use xlink:href="#c" height="600" width="600" y="617.359" x="104.277"/><path fill="#673bb7" d="M114.462 511.373c2.251 2.259-.275 6.29-2.532 6.517-2.256.228-4.297-3.932-2.984-4.296 1.363-.378 1.17-3.37 3.037-3.981 1.852-.606.167-.56 2.479 1.76z"/><use xlink:href="#a" height="600" width="600" y="653.287" x="177.991"/><use xlink:href="#b" height="600" width="600" y="652.671" x="136.829"/><use xlink:href="#c" height="600" width="600" y="651.746" x="111.083"/><path fill="#673bb7" d="M119.11 547.61c2.251 2.258-.276 6.289-2.532 6.517-2.257.228-4.297-3.932-2.985-4.296 1.363-.378 1.17-3.371 3.038-3.982 1.852-.605.167-.559 2.478 1.76z"/><use xlink:href="#a" height="600" width="600" y="645.579" x="205.587"/><use xlink:href="#b" height="600" width="600" y="644.192" x="167.662"/><use xlink:href="#c" height="600" width="600" y="643.421" x="90.117"/><path fill="#673bb7" d="M101.38 536.664c2.252 2.259-.275 6.29-2.531 6.517-2.257.228-4.297-3.932-2.985-4.296 1.363-.378 1.17-3.37 3.038-3.982 1.852-.605.167-.558 2.478 1.76z"/><use xlink:href="#a" height="600" width="600" transform="rotate(169.218 -17.532 235.819)"/><use xlink:href="#b" height="600" width="600" transform="rotate(169.218 .083 231.739)"/><use xlink:href="#c" height="600" width="600" transform="rotate(169.218 14.835 232.546)"/><path fill="#673bb7" d="M81.93 560.368c-2.635-1.798-.907-6.23 1.267-6.876 2.174-.646 4.957 3.059 3.736 3.662-1.269.626-.52 3.53-2.24 4.48-1.706.941-.06.58-2.764-1.266z"/><use xlink:href="#a" height="600" width="600" transform="rotate(169.218 -31.883 240.81)"/><use xlink:href="#b" height="600" width="600" transform="rotate(169.218 -15.024 236.322)"/><use xlink:href="#c" height="600" width="600" transform="matrix(-.81739 .18707 -.15565 -.98235 90.258 466.509)"/><path fill="#673bb7" d="M97.493 573.146c-2.635-1.798-.907-6.23 1.268-6.876 2.174-.646 4.957 3.059 3.735 3.662-1.268.626-.519 3.53-2.24 4.48-1.705.941-.058.58-2.763-1.266z"/><use xlink:href="#a" height="600" width="600" transform="rotate(169.218 196.703 223.553)"/><use xlink:href="#b" height="600" width="600" transform="rotate(169.218 214.766 221.305)"/><use xlink:href="#c" height="600" width="600" transform="rotate(169.218 230.23 221.167)"/><path fill="#673bb7" d="M509.255 501.066c-2.635-1.798-.907-6.23 1.267-6.876 2.175-.646 4.957 3.059 3.736 3.662-1.268.626-.519 3.53-2.24 4.48-1.705.94-.058.58-2.763-1.266z"/><use xlink:href="#a" height="600" width="600" transform="rotate(169.218 183.269 228.71)"/><use xlink:href="#b" height="600" width="600" transform="rotate(169.218 197.901 222.91)"/><use xlink:href="#c" height="600" width="600" transform="rotate(169.218 240.602 224.777)"/><path fill="#673bb7" d="M528.827 506.598c-2.635-1.798-.907-6.23 1.267-6.876 2.174-.646 4.957 3.059 3.736 3.662-1.268.626-.519 3.53-2.24 4.48-1.705.94-.059.58-2.763-1.266z"/><use xlink:href="#a" height="600" width="600" transform="rotate(169.218 180.207 211.878)"/><use xlink:href="#b" height="600" width="600" transform="rotate(169.218 198.27 209.63)"/><use xlink:href="#c" height="600" width="600" transform="rotate(169.218 213.734 209.492)"/><path fill="#673bb7" d="M474.371 481.008c-2.634-1.798-.906-6.23 1.268-6.876 2.174-.646 4.957 3.058 3.735 3.662-1.268.626-.519 3.53-2.239 4.48-1.706.94-.06.58-2.764-1.266z"/><use xlink:href="#a" height="600" width="600" transform="rotate(169.218 166.773 217.034)"/><use xlink:href="#b" height="600" width="600" transform="rotate(169.218 185.801 215.939)"/><use xlink:href="#c" height="600" width="600" transform="rotate(169.218 224.107 213.102)"/><path fill="#673bb7" d="M493.943 486.54c-2.634-1.798-.906-6.23 1.268-6.876 2.174-.646 4.957 3.059 3.735 3.662-1.268.626-.519 3.53-2.239 4.48-1.706.94-.06.58-2.764-1.266z"/><use xlink:href="#a" height="600" width="600" transform="rotate(169.218 -8.486 206.83)"/><use xlink:href="#b" height="600" width="600" transform="rotate(169.218 9.577 204.581)"/><use xlink:href="#c" height="600" width="600" transform="rotate(169.218 25.04 204.444)"/><path fill="#673bb7" d="M99.371 506.298c-2.634-1.797-.906-6.23 1.268-6.875 2.174-.646 4.957 3.058 3.735 3.661-1.268.627-.519 3.53-2.239 4.48-1.706.941-.06.58-2.764-1.266z"/><use xlink:href="#a" height="600" width="600" transform="rotate(169.218 -21.92 211.986)"/><use xlink:href="#b" height="600" width="600" transform="rotate(169.218 -2.892 210.89)"/><use xlink:href="#c" height="600" width="600" transform="rotate(169.218 35.413 208.054)"/><path fill="#673bb7" d="M118.943 511.83c-2.634-1.797-.906-6.23 1.268-6.875 2.174-.646 4.957 3.058 3.735 3.662-1.268.626-.519 3.53-2.239 4.48-1.706.94-.06.58-2.764-1.267z"/><use xlink:href="#a" height="600" width="600" transform="rotate(169.218 173.642 206.86)"/><use xlink:href="#b" height="600" width="600" transform="rotate(169.218 191.705 204.61)"/><use xlink:href="#c" height="600" width="600" transform="rotate(169.218 207.169 204.473)"/><path fill="#673bb7" d="M460.09 471.742c-2.634-1.798-.906-6.23 1.268-6.876 2.174-.646 4.957 3.058 3.736 3.662-1.268.626-.52 3.53-2.24 4.48-1.705.94-.059.58-2.763-1.266z"/><use xlink:href="#a" height="600" width="600" transform="rotate(169.218 160.208 212.016)"/><use xlink:href="#b" height="600" width="600" transform="rotate(169.218 179.236 210.92)"/><use xlink:href="#c" height="600" width="600" transform="rotate(169.218 217.542 208.083)"/><path fill="#673bb7" d="M479.99 477.819c-2.635-1.798-.907-6.23 1.267-6.876 2.174-.646 4.957 3.059 3.736 3.662-1.268.626-.52 3.53-2.24 4.48-1.705.94-.059.58-2.763-1.266z"/><use xlink:href="#a" height="600" width="600" transform="rotate(169.218 203.3 218.897)"/><use xlink:href="#b" height="600" width="600" transform="rotate(169.218 221.365 216.648)"/><use xlink:href="#c" height="600" width="600" transform="rotate(169.218 236.828 216.51)"/><path fill="#673bb7" d="M521.464 490.6c-2.634-1.797-.906-6.23 1.268-6.875 2.174-.646 4.957 3.059 3.735 3.662-1.268.626-.519 3.53-2.239 4.48-1.706.94-.06.58-2.764-1.266z"/><use xlink:href="#a" height="600" width="600" transform="rotate(169.218 189.867 224.053)"/><use xlink:href="#b" height="600" width="600" transform="rotate(169.218 208.895 222.958)"/><use xlink:href="#c" height="600" width="600" transform="rotate(169.218 247.2 220.12)"/><path fill="#673bb7" d="M541.036 496.133c-2.634-1.798-.906-6.23 1.268-6.876 2.174-.646 4.957 3.059 3.735 3.662-1.268.626-.519 3.53-2.239 4.48-1.706.94-.06.58-2.764-1.266z"/><use xlink:href="#a" height="600" width="600" transform="rotate(169.218 -16.179 218.423)"/><use xlink:href="#b" height="600" width="600" transform="rotate(169.218 1.885 216.173)"/><use xlink:href="#c" height="600" width="600" transform="rotate(169.218 17.348 216.036)"/><path fill="#673bb7" d="M86.29 530.717c-2.635-1.798-.907-6.23 1.267-6.876 2.174-.646 4.957 3.059 3.736 3.662-1.268.626-.519 3.53-2.24 4.48-1.705.94-.059.58-2.763-1.266z"/><use xlink:href="#a" height="600" width="600" transform="rotate(169.218 -29.613 223.579)"/><use xlink:href="#b" height="600" width="600" transform="rotate(169.218 -10.585 222.483)"/><use xlink:href="#c" height="600" width="600" transform="rotate(169.218 27.72 219.646)"/><path fill="#673bb7" d="M105.862 536.25c-2.635-1.799-.907-6.23 1.267-6.877 2.174-.646 4.957 3.059 3.736 3.662-1.268.626-.52 3.53-2.24 4.48-1.705.941-.059.58-2.763-1.266z"/><use xlink:href="#b" height="600" width="600" transform="rotate(-135.986 240.973 63.624)"/><use xlink:href="#c" height="600" width="600" transform="rotate(-135.986 256.948 70.929)"/><path fill="#673bb7" d="M312.208 372.2c-.05-3.19 4.568-4.333 6.349-2.928 1.781 1.404.358 5.813-.839 5.163-1.243-.675-3.183 1.611-4.95.753-1.753-.852-.509.286-.56-2.989z"/><use xlink:href="#a" height="600" width="600" transform="rotate(-135.986 200.441 47.395)"/><use xlink:href="#b" height="600" width="600" transform="rotate(-135.986 217.716 54.076)"/><use xlink:href="#c" height="600" width="600" transform="rotate(-135.986 232.36 61.042)"/><path fill="#673bb7" d="M270.493 331.476c-.05-3.189 4.568-4.332 6.349-2.928 1.78 1.404.358 5.814-.839 5.164-1.243-.676-3.184 1.61-4.95.752-1.754-.851-.51.286-.56-2.988z"/><use xlink:href="#c" height="600" width="600" transform="rotate(-135.986 218.602 55.98)"/><use xlink:href="#b" height="600" width="600" transform="rotate(-142.596 279.339 96.19)"/><use xlink:href="#c" height="600" width="600" transform="rotate(-142.596 293.253 102.045)"/><path fill="#673bb7" d="M389.481 438.759c-.416-3.162 4.04-4.83 5.97-3.64 1.93 1.19 1.025 5.734-.239 5.226-1.312-.528-2.977 1.967-4.831 1.318-1.84-.644-.472.342-.9-2.904z"/><use xlink:href="#a" height="600" width="600" transform="rotate(-142.596 235.617 82.629)"/><use xlink:href="#b" height="600" width="600" transform="rotate(-142.596 253.503 88.082)"/><use xlink:href="#c" height="600" width="600" transform="rotate(-142.596 268.702 94.884)"/><path fill="#673bb7" d="M353.74 409.514c-.417-3.162 4.039-4.83 5.97-3.64 1.93 1.19 1.025 5.734-.24 5.226-1.312-.528-2.976 1.967-4.83 1.318-1.84-.644-.473.342-.9-2.904z"/><use xlink:href="#c" height="600" width="600" transform="rotate(-142.596 256.657 88.78)"/><path fill="#673bb7" d="M476.423 449.071c2.811 1.507 1.565 6.098-.528 6.972-2.093.874-5.254-2.513-4.104-3.243 1.194-.758.14-3.566 1.749-4.693 1.596-1.117-.003-.583 2.883.964z"/><use xlink:href="#b" height="600" width="600" transform="rotate(-52.081 827.991 -356.065)"/><use xlink:href="#c" height="600" width="600" transform="rotate(-52.081 792.329 -324.584)"/><path fill="#673bb7" d="M486.993 444.462c3.165-.388 4.792 4.082 3.585 6.002-1.207 1.92-5.742.974-5.223-.285.54-1.308-1.94-2.995-1.274-4.844.66-1.833-.338-.475 2.912-.873z"/><use xlink:href="#a" height="600" width="600" transform="rotate(-52.081 761.025 -376.655)"/><use xlink:href="#b" height="600" width="600" transform="rotate(-52.081 788.454 -373.224)"/><path fill="#673bb7" d="M452.94 466.086c3.166-.388 4.793 4.082 3.586 6.003-1.208 1.92-5.743.973-5.224-.286.54-1.308-1.94-2.995-1.274-4.843.66-1.833-.338-.475 2.912-.874z"/><use xlink:href="#a" height="600" width="600" transform="rotate(-52.081 767.432 -393.305)"/><use xlink:href="#b" height="600" width="600" transform="rotate(-52.081 825.118 -364.23)"/><use xlink:href="#c" height="600" width="600" transform="rotate(-52.081 817.941 -334.869)"/><use xlink:href="#a" height="600" width="600" transform="rotate(117.137 15.298 352.595)"/><use xlink:href="#b" height="600" width="600" transform="rotate(117.137 36.001 351.153)"/><use xlink:href="#c" height="600" width="600" transform="rotate(117.137 79.704 337.923)"/><use xlink:href="#a" height="600" width="600" transform="rotate(-105.778 477.377 -56.42)"/><use xlink:href="#c" height="600" width="600" transform="rotate(117.137 41.682 314.813)"/><path fill="#673bb7" d="M522.312 481.338c-3.037.974-5.471-3.113-4.645-5.225.827-2.112 5.46-2.03 5.185-.697-.286 1.386 2.466 2.58 2.157 4.52-.305 1.924.422.403-2.697 1.402z"/><use xlink:href="#a" height="600" width="600" transform="rotate(117.137 19.26 352.756)"/><use xlink:href="#b" height="600" width="600" transform="rotate(117.137 44.359 330.83)"/><use xlink:href="#c" height="600" width="600" transform="rotate(117.137 53.655 329.304)"/><path fill="#673bb7" d="M447.337 471.07c-3.037.974-5.472-3.113-4.645-5.225.827-2.112 5.46-2.03 5.184-.696-.285 1.385 2.466 2.579 2.158 4.52-.306 1.923.421.403-2.697 1.402zm32.243-29.76c3.07-.86 5.352 3.314 4.448 5.394-.903 2.08-5.53 1.828-5.206.505.336-1.374-2.37-2.668-1.99-4.596.377-1.912-.406-.419 2.747-1.302z"/><use xlink:href="#b" height="600" width="600" transform="rotate(-95.934 472.623 -72.06)"/><use xlink:href="#c" height="600" width="600" transform="rotate(-95.934 544.425 -56.324)"/><path fill="#673bb7" d="M426.602 459.418c2.014-2.473 6.284-.377 6.744 1.844.46 2.22-3.467 4.68-3.965 3.413-.516-1.317-3.473-.816-4.274-2.61-.794-1.78-.573-.108 1.495-2.647z"/><use xlink:href="#a" height="600" width="600" transform="rotate(-95.934 417.112 -57.192)"/><use xlink:href="#b" height="600" width="600" transform="rotate(-95.934 465.63 -73.528)"/><path fill="#673bb7" d="M467.837 430.923c2.014-2.473 6.284-.377 6.744 1.844.46 2.221-3.467 4.681-3.965 3.413-.517-1.317-3.473-.815-4.274-2.61-.794-1.78-.573-.108 1.495-2.647z"/><use xlink:href="#a" height="600" width="600" transform="rotate(-95.934 443.095 -63.893)"/><use xlink:href="#b" height="600" width="600" transform="rotate(-95.934 454.254 -36.85)"/><use xlink:href="#c" height="600" width="600" transform="rotate(-95.934 497.075 -25.412)"/><use xlink:href="#a" height="600" width="600" transform="rotate(73.284 -211.988 540.656)"/><use xlink:href="#b" height="600" width="600" transform="rotate(73.284 -149.987 569.313)"/><use xlink:href="#c" height="600" width="600" transform="rotate(73.284 -157.209 529.848)"/><use xlink:href="#a" height="600" width="600" transform="rotate(73.284 -175.284 548.702)"/><use xlink:href="#c" height="600" width="600" transform="rotate(73.284 -167.365 489.761)"/><path fill="#673bb7" d="M483.054 456.625c-1.516 2.806-6.103 1.546-6.97-.55s2.53-5.247 3.256-4.094c.754 1.197 3.565.151 4.687 1.764 1.113 1.6.584 0-.973 2.88z"/><use xlink:href="#a" height="600" width="600" transform="rotate(73.284 -207.959 587.02)"/><use xlink:href="#b" height="600" width="600" transform="rotate(73.284 -143.528 610.681)"/><use xlink:href="#c" height="600" width="600" transform="rotate(73.284 -128.919 534.655)"/><path fill="#673bb7" d="M468.41 428.673c-1.516 2.806-6.103 1.546-6.97-.55s2.53-5.247 3.256-4.094c.754 1.196 3.565.15 4.687 1.764 1.113 1.6.583-.001-.973 2.88zm79.592-390.044c-.07 3.189-4.726 4.158-6.454 2.689-1.727-1.47-.14-5.823 1.031-5.129 1.217.721 3.242-1.49 4.976-.567 1.72.916.519-.267.447 3.007z"/><use xlink:href="#a" height="600" width="600" transform="rotate(46.155 68.102 705.592)"/><use xlink:href="#b" height="600" width="600" transform="rotate(46.155 89.388 670.788)"/><path fill="#673bb7" d="M544.137 45.195c-.536 3.144-5.284 3.422-6.778 1.716-1.494-1.707.712-5.781 1.77-4.923 1.098.892 3.425-1 5.005.167 1.567 1.158.552-.188.003 3.04z"/><use xlink:href="#a" height="600" width="600" transform="rotate(-43.279 451.556 -570.66)"/><use xlink:href="#a" height="600" width="600" transform="rotate(-133.04 133.273 141.635)"/><use xlink:href="#b" height="600" width="600" transform="rotate(-133.04 151.698 162.218)"/><path fill="#673bb7" d="M113.548 478.582c-2.944-1.225-2.153-5.916-.155-6.99 1.998-1.074 5.475 1.988 4.402 2.827-1.115.87.208 3.562-1.283 4.841-1.48 1.268.06.58-2.964-.678z"/><use xlink:href="#a" height="600" width="600" transform="rotate(37.61 -822.384 549.818)"/><use xlink:href="#b" height="600" width="600" transform="rotate(157.499 -29.276 208.14)"/><use xlink:href="#c" height="600" width="600" transform="rotate(157.499 -8.554 195.958)"/><use xlink:href="#a" height="600" width="600" transform="rotate(89.591 -281.945 303.509)"/><use xlink:href="#b" height="600" width="600" transform="rotate(-133.04 175.796 144.904)"/><use xlink:href="#c" height="600" width="600" transform="rotate(-133.04 181.993 164.167)"/><path fill="#673bb7" d="M127.703 494.777c.114-3.187 4.784-4.092 6.49-2.598 1.707 1.494.06 5.824-1.102 5.114-1.207-.739-3.262 1.445-4.983.497-1.707-.94-.523.26-.405-3.013z"/><use xlink:href="#c" height="600" width="600" transform="rotate(36.179 -888.212 355.636)"/><path fill="#673bb7" d="M150.943 487.07c.484 3.152-3.935 4.914-5.89 3.766-1.956-1.148-1.148-5.71.126-5.23 1.324.5 2.935-2.03 4.803-1.42 1.852.604.464-.353.961 2.884z"/><use xlink:href="#a" height="600" width="600" transform="rotate(36.179 -891.264 504.9)"/><use xlink:href="#b" height="600" width="600" transform="rotate(36.179 -875.816 485.604)"/><use xlink:href="#b" height="600" width="600" transform="rotate(36.179 -875.294 452.035)"/><use xlink:href="#c" height="600" width="600" transform="rotate(36.179 -836.918 415.056)"/><path fill="#673bb7" d="M120.985 441.424c.484 3.152-3.934 4.914-5.89 3.766-1.956-1.148-1.148-5.71.126-5.23 1.324.5 2.935-2.03 4.803-1.42 1.852.604.464-.353.961 2.884z"/><use xlink:href="#a" height="600" width="600" transform="rotate(36.179 -860.684 498.664)"/><path fill="#673bb7" d="M115.897 468.285c.484 3.152-3.935 4.914-5.89 3.766-1.956-1.148-1.148-5.71.126-5.23 1.324.5 2.935-2.03 4.803-1.42 1.852.604.464-.353.961 2.884z"/><use xlink:href="#c" height="600" width="600" transform="rotate(-153.757 114.615 195.213)"/><path fill="#673bb7" d="M114.85 496.876c-1.02-3.021 3.028-5.52 5.153-4.726 2.124.794 2.115 5.427.777 5.173-1.39-.263-2.54 2.506-4.485 2.228-1.929-.275-.397.428-1.445-2.675z"/><use xlink:href="#a" height="600" width="600" transform="rotate(-153.757 81.67 176.35)"/><use xlink:href="#b" height="600" width="600" transform="rotate(-153.757 110.27 180.544)"/><use xlink:href="#c" height="600" width="600" transform="rotate(-153.757 124.73 204.581)"/><use xlink:href="#c" height="600" width="600" transform="rotate(-89.599 374.44 126.976)"/><path fill="#673bb7" d="M97.453 493.602c2.274-2.236 6.287.319 6.499 2.577.212 2.258-3.962 4.27-4.317 2.954-.368-1.365-3.362-1.193-3.96-3.065-.593-1.856-.558-.17 1.778-2.466zm-1.01 49.949c2.275-2.236 6.287.32 6.5 2.577.211 2.258-3.962 4.27-4.317 2.955-.369-1.366-3.363-1.194-3.96-3.066-.593-1.856-.558-.17 1.777-2.466z"/><use xlink:href="#a" height="600" width="600" transform="rotate(-148.158 87.177 133.343)"/><use xlink:href="#b" height="600" width="600" transform="rotate(-155.514 93.823 155.446)"/><use xlink:href="#a" height="600" width="600" transform="rotate(79.619 -394.774 339.658)"/><use xlink:href="#b" height="600" width="600" transform="rotate(135.608 -85.635 222.891)"/><use xlink:href="#c" height="600" width="600" transform="rotate(79.619 -327.684 285.846)"/><use xlink:href="#a" height="600" width="600" transform="rotate(10.807 -3646.4 1346.003)"/><use xlink:href="#b" height="600" width="600" transform="rotate(79.619 -361.907 289.483)"/><use xlink:href="#c" height="600" width="600" transform="rotate(79.619 -286.942 249.048)"/><path fill="#673bb7" d="M131.853 540.853c-1.816 2.622-6.236.863-6.866-1.316-.631-2.178 3.093-4.935 3.687-3.71.618 1.273 3.527.544 4.464 2.271.93 1.712.58.063-1.285 2.755z"/><use xlink:href="#a" height="600" width="600" transform="rotate(-135.469 134.423 172.086)"/><use xlink:href="#a" height="600" width="600" transform="rotate(-71.311 443.684 28.605)"/><use xlink:href="#b" height="600" width="600" transform="rotate(-71.311 482.338 86.826)"/><use xlink:href="#c" height="600" width="600" transform="rotate(97.907 -218.122 253.486)"/><path fill="#673bb7" d="M107.45 484.982c-2.547 1.92-6.192-1.138-6.107-3.404.085-2.267 4.486-3.716 4.666-2.366.187 1.403 3.178 1.623 3.526 3.557.345 1.918.53.242-2.085 2.213z"/><use xlink:href="#c" height="600" width="600" transform="rotate(134.932 -87.92 230.877)"/><use xlink:href="#c" height="600" width="600" transform="rotate(8.308 -4218.94 1198.82)"/><path fill="#673bb7" d="M130.315 517.644c1.901 2.56-1.181 6.184-3.447 6.083-2.266-.1-3.684-4.512-2.333-4.682 1.404-.177 1.645-3.167 3.581-3.501 1.92-.332.246-.529 2.199 2.1zm-7.109-15.619c2.352 2.154.01 6.295-2.234 6.625-2.243.33-4.47-3.733-3.176-4.157 1.345-.439 1.017-3.42 2.855-4.115 1.822-.688.141-.565 2.555 1.647z"/><use xlink:href="#a" height="600" width="600" transform="rotate(-2.594 12712.03 -13005.45)"/><use xlink:href="#b" height="600" width="600" transform="rotate(-2.594 12936.251 -11036.656)"/><use xlink:href="#c" height="600" width="600" transform="rotate(61.564 -420.988 320.786)"/><path fill="#673bb7" d="M478.696 474.025c-.914 3.055-5.661 2.753-6.936.877-1.275-1.876 1.411-5.651 2.356-4.67.982 1.018 3.522-.576 4.948.775 1.414 1.34.57-.12-.368 3.018z"/><use xlink:href="#a" height="600" width="600" transform="rotate(-129.218 334.268 32.827)"/><use xlink:href="#c" height="600" width="600" transform="rotate(-129.218 363.972 78.59)"/><path fill="#673bb7" d="M130.476 493.049c-3.17-.349-3.728-5.073-2.113-6.665 1.615-1.592 5.813.37 5.018 1.476-.825 1.15 1.202 3.36.13 5.006-1.064 1.633.22.54-3.035.183z"/><use xlink:href="#b" height="600" width="600" transform="rotate(-9.748 3727.547 -3045.469)"/><path fill="#673bb7" d="M470.2 489.431c-1.346 2.892-6 1.906-6.99-.134-.99-2.04 2.213-5.388 3.006-4.28.824 1.149 3.568-.062 4.784 1.481 1.206 1.53.582-.035-.8 2.933zM201.466 176.304c-.313 3.174-5.03 3.785-6.64 2.188-1.61-1.597.304-5.817 1.42-5.035 1.157.812 3.345-1.239 5.004-.185 1.644 1.045.537-.226.216 3.032z"/><use xlink:href="#c" height="600" width="600" transform="rotate(50.538 -168.046 189.466)"/><use xlink:href="#a" height="600" width="600" transform="rotate(-125.534 96.183 -20.452)"/><use xlink:href="#c" height="600" width="600" transform="rotate(-130.229 135.12 7.082)"/><path fill="#673bb7" d="M156.8 117.979c-.7 3.112-5.456 3.142-6.859 1.36-1.403-1.783 1.013-5.736 2.024-4.824 1.05.948 3.473-.82 4.99.428 1.505 1.238.561-.16-.156 3.036z"/><use xlink:href="#a" height="600" width="600" transform="rotate(-29.502 416.74 -453.299)"/><use xlink:href="#c" height="600" width="600" transform="rotate(57.557 -101.946 102.674)"/><use xlink:href="#c" height="600" width="600" transform="rotate(57.557 -90.855 63.336)"/><use xlink:href="#c" height="600" width="600" transform="rotate(-114.128 117.473 -23.888)"/><path fill="#673bb7" d="M87.653 117.975c.35-3.17 5.074-3.726 6.665-2.11 1.592 1.617-.372 5.813-1.478 5.018-1.149-.825-3.36 1.2-5.007.127-1.632-1.064-.54.22-.18-3.035zM71.157 90.842c.35-3.17 5.075-3.726 6.666-2.11 1.59 1.617-.373 5.813-1.479 5.018-1.149-.826-3.36 1.2-5.006.127-1.633-1.064-.54.22-.181-3.035z"/><use xlink:href="#a" height="600" width="600" transform="rotate(-140.586 165.643 -32.687)"/><use xlink:href="#c" height="600" width="600" transform="rotate(-43.279 518.392 -399.862)"/><use xlink:href="#b" height="600" width="600" transform="rotate(52.398 -182.534 474.48)"/><use xlink:href="#b" height="600" width="600" transform="rotate(52.398 -251.953 450.455)"/><use xlink:href="#a" height="600" width="600" transform="rotate(38.962 -353.133 693.4)"/><use xlink:href="#a" height="600" width="600" transform="rotate(38.962 -447.3 648.991)"/><use xlink:href="#a" height="600" width="600" transform="rotate(132.674 34.799 171.21)"/><path fill="#673bb7" d="M268.747 247.292c-1.786-2.642 1.455-6.125 3.714-5.924 2.259.202 3.48 4.671 2.122 4.782-1.41.114-1.784 3.09-3.733 3.338-1.933.246-.27.517-2.103-2.196z"/><use xlink:href="#a" height="600" width="600" transform="rotate(-46.966 449.92 -330.242)"/><path fill="#673bb7" d="M228.17 205.113c1.066 3.007-2.945 5.564-5.081 4.802-2.137-.763-2.196-5.396-.854-5.161 1.394.243 2.503-2.543 4.452-2.294 1.933.247.39-.433 1.484 2.653z"/><use xlink:href="#a" height="600" width="600" transform="rotate(-51.125 728.2 -419.281)"/><use xlink:href="#a" height="600" width="600" transform="rotate(-51.125 713.933 -412.64)"/><use xlink:href="#a" height="600" width="600" transform="rotate(-51.125 694.377 -402.39)"/><use xlink:href="#c" height="600" width="600" transform="rotate(35.184 -609.512 929.839)"/><use xlink:href="#a" height="600" width="600" transform="rotate(-47.113 625.577 -393.253)"/><use xlink:href="#a" height="600" width="600" transform="rotate(-47.113 662.262 -411.766)"/><use xlink:href="#a" height="600" width="600" transform="rotate(127.474 -9.027 228.555)"/><use xlink:href="#a" height="600" width="600" transform="rotate(-42.232 645.555 -435.582)"/><use xlink:href="#b" height="600" width="600" transform="rotate(-137.443 204.91 53.164)"/><use xlink:href="#a" height="600" width="600" transform="rotate(40.27 -440.77 660.82)"/><use xlink:href="#c" height="600" width="600" transform="rotate(53.082 52.988 513.38)"/><use xlink:href="#a" height="600" width="600" transform="rotate(53.082 -36.847 581.717)"/><use xlink:href="#b" height="600" width="600" transform="rotate(53.082 16.177 549.031)"/><path fill="#673bb7" d="M497.18 109.534c-.453 3.157-5.193 3.558-6.73 1.89-1.538-1.667.562-5.797 1.641-4.966 1.121.862 3.398-1.09 5.008.037 1.597 1.116.547-.203.081 3.039z"/><use xlink:href="#a" height="600" width="600" transform="rotate(-43.279 387.823 -728.715)"/><path fill="#673bb7" d="M490.495 33.445c3.188.1 4.111 4.767 2.625 6.48-1.487 1.713-5.824.083-5.118-1.082.733-1.21-1.46-3.256-.518-4.98.933-1.711-.262-.522 3.01-.418z"/><use xlink:href="#b" height="600" width="600" transform="rotate(53.082 -17.637 466.818)"/><path fill="#673bb7" d="M477.047 49.577c-.453 3.157-5.193 3.558-6.73 1.89-1.538-1.666.562-5.797 1.641-4.966 1.121.863 3.398-1.089 5.008.037 1.597 1.117.547-.202.081 3.04z"/><use xlink:href="#a" height="600" width="600" transform="rotate(-43.279 492.187 -666.322)"/><path fill="#673bb7" d="M495.073 30.392c3.188.101 4.112 4.768 2.625 6.48-1.486 1.713-5.824.084-5.118-1.08.734-1.21-1.459-3.257-.518-4.982.933-1.71-.261-.521 3.011-.418z"/><use xlink:href="#b" height="600" width="600" transform="rotate(53.082 35.815 486.479)"/><path fill="#673bb7" d="M544.454 64.403c-.453 3.157-5.194 3.558-6.731 1.89-1.538-1.667.562-5.797 1.642-4.966 1.12.863 3.398-1.09 5.008.037 1.596 1.117.547-.202.081 3.039zM520.282 88.64c-3.117.678-5.148-3.624-4.123-5.647 1.025-2.023 5.629-1.498 5.227-.196-.416 1.352 2.208 2.803 1.715 4.705-.489 1.886.38.442-2.82 1.138zm7.413-8.939c-3.117.678-5.148-3.624-4.123-5.647 1.025-2.023 5.629-1.498 5.227-.196-.417 1.352 2.208 2.803 1.715 4.705-.49 1.886.38.442-2.82 1.138zm18.503-22.493c-.453 3.157-5.193 3.558-6.73 1.89-1.538-1.667.561-5.797 1.64-4.966 1.122.863 3.399-1.09 5.009.037 1.596 1.117.547-.202.081 3.039zM520.69 28.865c-.454 3.157-5.194 3.558-6.732 1.89-1.537-1.667.563-5.797 1.642-4.966 1.121.863 3.398-1.09 5.008.037 1.597 1.117.547-.202.082 3.039zm-10.466 2.18c-.453 3.157-5.193 3.558-6.73 1.891-1.538-1.667.562-5.798 1.641-4.967 1.121.863 3.398-1.089 5.008.037 1.597 1.117.547-.202.081 3.04z"/><use xlink:href="#c" height="600" width="600" transform="rotate(57.557 -108.493 35.484)"/><use xlink:href="#c" height="600" width="600" y="141.766" x="90.268"/><use xlink:href="#b" height="600" width="600" transform="rotate(57.557 -116.288 120.36)"/><use xlink:href="#c" height="600" width="600" transform="rotate(19.015 -511.615 207.876)"/><path fill="#673bb7" d="M505.965 471.817c3.187.115 4.09 4.785 2.596 6.492-1.494 1.706-5.825.057-5.113-1.104.738-1.207-1.445-3.263-.496-4.984.94-1.706-.26-.522 3.013-.404z"/><use xlink:href="#c" height="600" width="600" transform="rotate(-43.024 981.218 -448.612)"/><use xlink:href="#b" height="600" width="600" transform="rotate(179.127 215.693 183.043)"/><use xlink:href="#c" height="600" width="600" transform="rotate(38.929 -604.354 907.955)"/><use xlink:href="#a" height="600" width="600" transform="rotate(26.357 -1021.393 1382.364)"/><use xlink:href="#a" height="600" width="600" transform="rotate(33.42 -796.716 641.77)"/><use xlink:href="#a" height="600" width="600" transform="rotate(-151.786 83.598 124.21)"/><use xlink:href="#a" height="600" width="600" transform="rotate(-83.025 321.966 58.329)"/><use xlink:href="#a" height="600" width="600" transform="rotate(121.619 -131.255 256.034)"/><use xlink:href="#b" height="600" width="600" transform="rotate(133.203 -48.004 212.108)"/><use xlink:href="#c" height="600" width="600" transform="rotate(-152.486 126.978 181.641)"/><path fill="#673bb7" d="M139.2 490.527c-.954-3.044 3.149-5.452 5.255-4.611 2.107.84 1.995 5.472.663 5.189-1.384-.295-2.595 2.449-4.533 2.128-1.923-.319-.407.418-1.385-2.706zm-6.454 15.326c-2.104 2.397-6.294.143-6.67-2.093-.378-2.236 3.637-4.549 4.087-3.263.468 1.335 3.442.944 4.175 2.766.727 1.808.569.13-1.592 2.59z"/><use xlink:href="#b" height="600" width="600" transform="rotate(143.935 -70.206 214.026)"/><use xlink:href="#c" height="600" width="600" transform="rotate(-46.846 716.6 53.308)"/><use xlink:href="#a" height="600" width="600" transform="rotate(37.61 -766.849 566.02)"/><use xlink:href="#c" height="600" width="600" transform="rotate(-27.735 1046.614 -187.29)"/><use xlink:href="#b" height="600" width="600" transform="rotate(-135.256 147.36 126.597)"/><path fill="#673bb7" d="M118.981 446.203c.484 3.152-3.935 4.914-5.89 3.766-1.956-1.148-1.148-5.71.126-5.23 1.324.5 2.935-2.03 4.803-1.42 1.852.604.464-.353.961 2.884z"/><use xlink:href="#a" height="600" width="600" transform="rotate(-142.327 155.058 -4.057)"/><use xlink:href="#a" height="600" width="600" transform="rotate(38.962 -381.928 677.843)"/><use xlink:href="#a" height="600" width="600" transform="rotate(-22.007 948.63 -927.723)"/><use xlink:href="#a" height="600" width="600" transform="rotate(38.962 -313.438 713.437)"/><use xlink:href="#c" height="600" width="600" transform="rotate(-49.073 546.2 -150.173)"/><use xlink:href="#a" height="600" width="600" transform="rotate(-51.713 491.656 -195.843)"/><path fill="#673bb7" d="M220.697 296.478c-2.684-1.722-1.083-6.202 1.072-6.909 2.154-.707 5.042 2.916 3.838 3.554-1.25.662-.418 3.544-2.111 4.541-1.679.99-.043.582-2.799-1.186z"/><use xlink:href="#a" height="600" width="600" transform="rotate(123.786 -40.9 175.997)"/><use xlink:href="#a" height="600" width="600" transform="rotate(-55.139 123.967 -181.443)"/><use xlink:href="#a" height="600" width="600" transform="rotate(135.812 -43.2 58.075)"/><use xlink:href="#a" height="600" width="600" transform="rotate(-136.156 188.797 -72.273)"/><use xlink:href="#a" height="600" width="600" transform="rotate(-136.156 192.833 -83.017)"/><use xlink:href="#a" height="600" width="600" transform="rotate(143.742 -12.651 116.124)"/><use xlink:href="#a" height="600" width="600" transform="rotate(143.742 -14.908 108.941)"/><use xlink:href="#a" height="600" width="600" transform="rotate(-145.324 113.638 75.822)"/><use xlink:href="#a" height="600" width="600" transform="rotate(-47.113 645.156 -402.56)"/><use xlink:href="#a" height="600" width="600" transform="rotate(131.297 18.377 259.681)"/><use xlink:href="#a" height="600" width="600" transform="rotate(131.297 11.844 246.562)"/><use xlink:href="#a" height="600" width="600" transform="rotate(131.297 10.424 242.82)"/><use xlink:href="#a" height="600" width="600" transform="rotate(131.297 33.884 288.901)"/><use xlink:href="#a" height="600" width="600" transform="rotate(131.297 29.107 280.763)"/><use xlink:href="#b" height="600" width="600" transform="rotate(171.063 7.474 4.863)"/><use xlink:href="#a" height="600" width="600" transform="rotate(144.179 -30.617 57.25)"/><use xlink:href="#a" height="600" width="600" transform="rotate(144.179 -30.617 57.25)"/><use xlink:href="#a" height="600" width="600" transform="rotate(132.492 -9.275 188.237)"/><path fill="#673bb7" d="M225.167 294.843c-2.685-1.722-1.084-6.202 1.071-6.91 2.155-.707 5.042 2.917 3.838 3.555-1.25.662-.418 3.543-2.11 4.541-1.68.99-.043.582-2.8-1.186z"/><path fill="#673bb7" d="M160.355 370.832c38.761-48.247 42.707-47.985 68.077-80.244-21.866-20.546-47.22-47.517-87.112-106.438-39.378-58.164-96.966-125.48-71.26-138.654 35.133-18.005 69.422 61.021 106.581 108.534 35.942 45.958 91.815 103.036 91.815 103.036s49.117-57.11 110.973-116.892C442.063 79.641 507.354 6.524 533.355 37.401c26.604 31.593-67.246 87.51-115.329 132.169-47.25 43.885-91.845 82.25-120.573 115.552 25.202 30.34 54.786 53.362 105.52 94.268 51.675 41.666 81.64 55.4 66.176 79.966-16.163 25.678-77.584-23.137-124.786-65.189-45.998-40.978-82.095-77.104-82.095-77.104s-22.606 31.8-51.5 69.865c-28.295 37.278-54.67 104.928-84.44 98.655-29.414-6.198 1.602-74.39 34.027-114.75z"/></svg>